# xmcd
#
# Track frame offsets: 
#        150
#        15485
#        35045
#        59462
#        81069
#        99943
#        125869
#        146572
#        160222
#        184371
#        199806
#        218863
#        246480
#        271533
#        288349
#        309134
#
# Disc length: 4410 seconds
#
# Revision: 1
# Processed by: cddbd v1.5.2PL0 Copyright (c) Steve Scherf et al.
# Submitted via: ExactAudioCopyFreeDBPlugin 1.0
#
DISCID=e6113810
DTITLE=Rene and Angela - Rene and Angela and Wall to Wall
DYEAR=2012
DGENRE=R&B
TTITLE0=Do You Really Love Me
TTITLE1=Turn It Out
TTITLE2=Everything We Do
TTITLE3=Hotel California
TTITLE4=I Don't Know (Where Love Comes From)
TTITLE5=Free and Easy
TTITLE6=Love Won't Slip Away
TTITLE7=Strangers Again
TTITLE8=Wall yo Wall
TTITLE9=Just Friends
TTITLE10=Secret Rendezvous
TTITLE11=Wanna Be Close to You
TTITLE12=I Love You More
TTITLE13=Love's Alright
TTITLE14=Imaginary Playmates
TTITLE15=Come My Way
EXTD=
EXTT0=
EXTT1=
EXTT2=
EXTT3=
EXTT4=
EXTT5=
EXTT6=
EXTT7=
EXTT8=
EXTT9=
EXTT10=
EXTT11=
EXTT12=
EXTT13=
EXTT14=
EXTT15=
PLAYORDER=
